PathFileType	4	(X/Y/Z)	Patient4_TMGait_0pt7_01_left_49.trc.trc
DataRate	CameraRate	NumFrames	NumMarkers	Units	OrigDataRate	OrigDataStartFrame	OrigNumFrames
85.365853658537	85.365853658537	4	33	mm	85.365853658537	36	       141
Frame#	Time	Sacral			L.Shoulder			Chest			R.Shoulder			Neck			R.ASIS			L.ASIS			R.Thigh.Superior			R.Thigh.Lateral			R.Thigh.Inferior			R.Patella			L.Thigh.Superior			L.Thigh.Lateral			L.Thigh.Inferior			L.Patella			L.Shank.Superior			L.Shank.Lateral			L.Shank.Inferior			R.Shank.Superior			R.Shank.Lateral			R.Shank.Inferior			R.Heel			R.Midfoot.Superior			R.Midfoot.Lateral			R.Toe			L.Heel			L.Midfoot.Lateral			L.Midfoot.Superior			L.Toe			L.Elbow			L.Wrist			R.Elbow			R.Wrist			
		X1	Y1	Z1	X2	Y2	Z2	X3	Y3	Z3	X4	Y4	Z4	X5	Y5	Z5	X6	Y6	Z6	X7	Y7	Z7	X8	Y8	Z8	X9	Y9	Z9	X10	Y10	Z10	X11	Y11	Z11	X12	Y12	Z12	X13	Y13	Z13	X14	Y14	Z14	X15	Y15	Z15	X16	Y16	Z16	X17	Y17	Z17	X18	Y18	Z18	X19	Y19	Z19	X20	Y20	Z20	X21	Y21	Z21	X22	Y22	Z22	X23	Y23	Z23	X24	Y24	Z24	X25	Y25	Z25	X26	Y26	Z26	X27	Y27	Z27	X28	Y28	Z28	X29	Y29	Z29	X30	Y30	Z30	X31	Y31	Z31	X32	Y32	Z32	X33	Y33	Z33	

36	57.350000000000	874.891188849819	1008.061817276943	499.599625225539	1048.795324920175	1423.516932339590	302.475326999900	1169.425095556972	1346.537873918453	448.457185681165	1114.430113559559	1430.649244564845	629.012398590325	1076.306777198790	1483.564842345766	454.617204030259	1101.287668474139	929.358261091993	602.287691498535	1075.433833375390	947.568582665946	328.344460871590	1092.916312886957	715.992666234585	585.684607338265	986.768922576983	626.950455251405	650.513196226040	1050.353053932159	553.818909135943	577.307325981524	1025.012888183149	455.580878092867	592.943450094337	1150.201346616196	768.823402491445	365.445434602564	1090.907292144409	639.447021313827	295.393909696369	1189.884772542843	576.236983036463	356.487698946962	1204.719855384161	504.619966491224	361.077549987718	1184.471073138754	429.729157021010	351.378679335009	1107.366666774745	308.537836941094	296.698976186173	1171.490174766612	200.198474347430	361.778305505843	955.634088751089	387.574123574161	599.857057768631	843.153588687905	330.332076283416	661.834092388820	840.617146795201	222.467060686009	606.687300659927	647.386091963781	116.467335872696	579.699593648187	827.312965325291	107.384904192596	615.286795226152	722.430877803153	72.923130815417	649.220953185304	920.003586913646	35.960021872801	632.155283875799	1057.008964846789	39.060556440993	397.453822424296	1132.397713309795	37.103612225608	317.868807783912	1214.857549408462	98.223406790442	346.319858215277	1343.796017216969	45.193077171503	319.949927563178	884.962056452805	1112.347531409947	213.099086812632	843.577004909294	853.489410215369	215.767164704241	1214.537287389295	1106.616570007488	744.151036520022	1411.069683294431	1195.758907251206	620.180561965209	
37	57.361714285714	875.900182455354	1009.575035112962	496.203600123639	1050.665901914028	1425.374693441399	299.882981380225	1170.756559061386	1348.251687308087	446.153801913045	1115.155098710464	1432.327327767694	626.505658869925	1077.604536731786	1485.166681098842	452.096590789373	1102.171467748932	931.091683231275	599.252971643331	1076.982110287655	949.157561128624	325.387182993229	1097.232195465967	717.809598244666	583.847728426226	992.954994945540	627.261956348089	648.768141302570	1058.668049262176	554.561156272805	576.354543589605	1034.040013655295	454.709930159757	593.596137611633	1150.736292117583	768.672760205242	362.494476398334	1089.378161612160	639.570319810938	293.808299969326	1187.666225513430	575.495109856068	355.103062876766	1201.735855014393	503.907809744594	360.484885569369	1180.729971972306	429.200126649569	350.781343245295	1102.563088079198	308.752450299022	296.092288746813	1165.075709263522	199.901368486012	361.735408043782	962.104215175480	388.054112112254	600.286864275495	847.140030544389	335.074271869122	661.452323035680	842.048989132375	226.619144868105	607.776867476828	645.659329778446	128.812370772461	580.660478377704	824.578442898938	109.617269802704	616.533631504525	718.007881372000	80.570861766425	649.772974353927	912.057731145424	35.189478071239	632.122642779726	1048.980514828046	39.094502181544	397.408348123598	1124.332620955407	37.187607290313	317.840088915020	1206.803007908572	98.282888692065	346.338579821108	1335.740248031029	45.018167994729	319.757166218489	889.719369648607	1112.485870505067	209.610509052297	857.491031411261	852.122503932086	212.567902441485	1207.273661675612	1105.357650511501	742.219409969476	1409.176683335879	1183.756066174232	619.843053683573	
38	57.373428571429	876.769208975857	1010.852120345555	492.880851173411	1052.615480199235	1427.038634064938	297.257081984230	1171.977288097796	1349.829384543200	443.993957396684	1115.502029408963	1433.876153953891	624.051015569400	1078.737892956089	1486.602821800420	449.528538552125	1102.910613741561	932.706204706588	596.386882907156	1078.406050908185	950.514581890583	322.634743842507	1102.029757166046	719.647518899577	582.079767859053	999.885238134339	627.382851161595	647.039042504558	1067.777035792689	555.306894920990	575.276788797011	1043.903744240375	453.904036870810	593.860855979572	1150.996530079436	768.112531028051	359.366043174626	1087.368732793971	639.481839495996	292.189475039763	1185.018309823025	574.576767009127	353.608915011015	1198.318645250200	503.090681269082	359.703024340875	1176.586888407696	428.581828653277	350.015118021272	1097.379732170681	308.804990408202	295.490871112463	1158.527532614587	199.554516742278	361.590988554013	969.541126922565	388.533757553248	600.422104356826	852.276425034201	339.986999369866	660.914413662796	844.415459519916	231.087377357548	608.681274950751	645.250611327268	142.254979286951	581.516440553361	822.426284285165	112.340840693978	617.640968580012	714.431984044878	89.335040224370	650.275004339632	904.138507761892	34.167224644306	632.151116120834	1040.917769273169	39.131896748246	397.396400318395	1116.236347511138	37.218900779821	317.835503485918	1198.759516485114	98.246515714697	346.365867529800	1327.687053172438	44.677907619908	319.611187420636	894.571070170790	1112.489928067911	205.871942029755	872.498131037496	850.860825003706	209.225375777310	1199.481417334676	1104.114479413117	740.233557518791	1407.067870376761	1170.229050402014	620.167084523710	
39	57.385142857143	877.476883986132	1011.867691108141	489.672596511404	1054.608268534576	1428.456221160597	294.629528172778	1173.067818271323	1351.219786717026	442.002810485648	1115.482153087818	1435.250717864491	621.680995481532	1079.694017938458	1487.843828158610	446.942185360423	1103.488138527757	934.141785630146	593.702961313744	1079.667940510683	951.637616121508	320.088065130788	1107.226888822280	721.516622031640	580.330957444404	1007.507347609459	627.357648553196	645.317079317153	1077.553492885360	556.109578670061	574.010614126791	1054.519967225091	453.220272623889	593.657569138070	1151.007104517034	767.260818905365	356.143518830693	1085.039247565874	639.290322993121	290.505142581510	1182.057289700033	573.570850476792	351.988968247925	1194.580274669747	502.218578430837	358.681754226425	1172.150471974805	427.896315445812	349.060582935632	1091.910244936487	308.737027670785	294.837386101355	1151.877199319919	199.165913707855	361.325879188657	977.883401381500	389.055308626186	600.191444109625	858.557698046720	345.038816374882	660.201315437164	847.723704364284	235.872085337238	609.335397264072	646.276277722411	156.684563274954	582.211355306208	820.928077205870	115.642620551696	618.571906173288	711.845323618110	99.201553483640	650.692606239330	896.343292091384	32.913992873775	632.254887804350	1032.817009578492	39.176341253771	397.389909918222	1108.108853906679	37.205323446716	317.829860768078	1190.719711354860	98.129439371709	346.379699745558	1319.631305418794	44.210503690359	319.500208198405	899.552304216219	1112.273801256686	201.902103701297	888.539258097936	849.739344695088	205.745383268146	1191.223380745370	1102.837789588753	738.178647516403	1404.553017441748	1155.258718989993	621.204459958988	
